<svg width="16" height="16" viewBox="0 0 16 16" fill="none" xmlns="http://www.w3.org/2000/svg">
<g clip-path="url(#clip0_2145_140)">
<path d="M13.2876 2.68139C11.9426 1.33639 10.0846 0.504395 8.03211 0.504395C3.92761 0.504395 0.599609 3.83189 0.599609 7.93689C0.599609 9.30289 0.968109 10.5824 1.61061 11.6824L1.59161 11.6474L0.537109 15.4984L4.47661 14.4649C5.50211 15.0344 6.72561 15.3694 8.02761 15.3694H8.03061C12.1351 15.3679 15.4616 12.0399 15.4616 7.93539C15.4616 5.88389 14.6311 4.02639 13.2876 2.68139ZM8.03061 14.1139H8.02811C6.86861 14.1139 5.78311 13.7939 4.85661 13.2374L4.88461 13.2529L4.65911 13.1194L2.32161 13.7329L2.94511 11.4534L2.79811 11.2199C2.20561 10.2889 1.85361 9.15439 1.85361 7.93739C1.85361 4.52639 4.61911 1.76089 8.03011 1.76089C11.4411 1.76089 14.2066 4.52639 14.2066 7.93739C14.2066 11.3484 11.4421 14.1139 8.03061 14.1139ZM11.4186 9.48839C11.2331 9.39539 10.3201 8.94689 10.1501 8.88439C9.97961 8.82239 9.85561 8.79189 9.73161 8.97789C9.60861 9.16339 9.25261 9.58139 9.14411 9.70539C9.03611 9.82989 8.92711 9.84489 8.74161 9.75239C8.16661 9.51939 7.67261 9.20889 7.24311 8.82639L7.24811 8.83089C6.84861 8.46089 6.50611 8.03739 6.22961 7.57039L6.21561 7.54439C6.10761 7.35889 6.20411 7.25839 6.29661 7.16589C6.38011 7.08289 6.48261 6.94889 6.57511 6.84089C6.64811 6.75139 6.71061 6.64889 6.75811 6.53889L6.76111 6.53039C6.78261 6.48689 6.79511 6.43639 6.79511 6.38239C6.79511 6.31689 6.77661 6.25589 6.74461 6.20389L6.74561 6.20539C6.69861 6.11239 6.32761 5.19839 6.17311 4.82639C6.02211 4.46439 5.86861 4.51389 5.75511 4.50789C5.64711 4.50289 5.52311 4.50189 5.39911 4.50189C5.20161 4.50689 5.02611 4.59589 4.90511 4.73339L4.90461 4.73439C4.50361 5.11489 4.25461 5.65139 4.25461 6.24589C4.25461 6.25889 4.25461 6.27239 4.25511 6.28539V6.28339C4.32061 7.01689 4.59561 7.67539 5.01861 8.21189L5.01261 8.20439C5.81461 9.39389 6.88361 10.3454 8.13811 10.9864L8.18511 11.0079C8.45911 11.1319 8.81011 11.2644 9.16911 11.3779L9.24361 11.3984C9.46461 11.4684 9.71911 11.5089 9.98311 11.5089C10.1346 11.5089 10.2836 11.4954 10.4276 11.4699L10.4121 11.4719C10.9466 11.3604 11.3901 11.0379 11.6606 10.5974L11.6651 10.5889C11.7476 10.4059 11.7956 10.1924 11.7956 9.96789C11.7956 9.87539 11.7876 9.78489 11.7721 9.69689L11.7736 9.70639C11.7276 9.62889 11.6036 9.58289 11.4176 9.48939L11.4186 9.48839Z" fill="white" stroke="white"/>
</g>
<defs>
<clipPath id="clip0_2145_140">
<rect width="16" height="16" fill="white"/>
</clipPath>
</defs>
</svg>
